<svg xmlns="http://www.w3.org/2000/svg" viewBox="0 0 279.5 284.04"><defs><style>.cls-1{fill:#e1ffc9;}.cls-2{fill:#005540;}</style></defs><g id="Layer_2" data-name="Layer 2"><g id="Layer_1-2" data-name="Layer 1"><path class="cls-1" d="M279.5,139.75a139.25,139.25,0,0,1-37.4,95.16c-.35.38-.71.76-1.08,1.13L221.79,252.9a138.78,138.78,0,0,1-32.54,17.57h0l-2.2.82q-4.31,1.56-8.73,2.82l-1.49.42a140.73,140.73,0,0,1-74.14,0l-1.49-.42q-4.44-1.26-8.74-2.82c-.74-.26-1.47-.53-2.2-.82h0a138.18,138.18,0,0,1-32.53-17.57L56.49,252a140.11,140.11,0,0,1-18-16c-.37-.37-.73-.75-1.08-1.13a139.75,139.75,0,1,1,242.1-95.16Z"/><path class="cls-2" d="M225.07,209.19l14.49-25.09-13.1-22.67L212,186.5,146.21,72.6H133.28L67.52,186.5,53,161.41,39.94,184.1l14.48,25.09L38.48,236.81a140.11,140.11,0,0,0,18,16l1.22.89L68.9,234.27l21.34,37h0l2.2,3.81,5.18,9,3.56-6.16,1.49-2.57,37.06-64.21,37.08,64.21,1.49,2.57,3.55,6.15.62-1.07,4.56-7.9,2.2-3.81h0l21.34-37,11.2,19.41L241,236.81Zm-42.59,25.68L168.76,211.1l-11.71-20.28-2.8-4.85-14.51-25.12-5.65,9.79L125.24,186,110.73,211.1l-2,3.52-12.47,21.6L83.32,213.87,82,211.58l1.32-2.29,13.19-22.83,12.19-21.12,2.31-4,14.51-25.12,8.57-14.84,5.65-9.8L154,136.2h0l3.08,5.33,11.43,19.79,14,24.25.51.88,14.5,25.12Z"/></g></g></svg>