<svg xmlns="http://www.w3.org/2000/svg" viewBox="0 0 862.85 783"><defs><style>.cls-1{fill:#fafbfe;}.cls-2,.cls-3{fill:none;stroke-miterlimit:10;}.cls-2{stroke:#021b79;stroke-width:10px;}.cls-3{stroke:#000;}.cls-4{fill:#4c76e2;}</style></defs><g id="Layer_2" data-name="Layer 2"><g id="Layer_1-2" data-name="Layer 1"><ellipse class="cls-1" cx="431.43" cy="391.5" rx="431.43" ry="391.5"/><path class="cls-2" d="M352,287.51H490.66"/><path class="cls-2" d="M363.1,323.28H501.81"/><path class="cls-2" d="M402.81,287.75a56.3,56.3,0,0,1,30.66,14.86c4.25,4.11,19.35,18.73,15.8,37.63-3.24,17.17-19.95,27.58-33.91,30.19-16.47,3.08-27.18-8.09-30.2-5.11-3.42,3.39,16.08,15.27,76.42,88.49"/><path d="M278.13,618.6c12.56,0,14.39-1.42,15.81-11.55l8.61-.71.71,1s-1.83,9.12-2.84,18.85l-.91,1.11s-19.05-.71-31.62-.71a170.73,170.73,0,0,0-17.63,1l.81-6.89c5.58-.82,7.3-2.84,7.3-8.72l.1-38.4c0-4.36-.61-5.47-3.34-5.47-1.12,0-3,.2-3,.2l-.71-.91.81-6.18s11.14.3,18.74.3c14.39,0,24.63-.41,30.81-1.22l.81,1.12a144.09,144.09,0,0,0-2.33,18.44l-9.32.61s.2-2.64.2-4.06c0-5.57-1.42-6.38-12.77-6.38-4.76,0-5.27.31-5.37,3.35l-.71,15.7c2.13,0,6.49.1,9.43.1,3.34,0,11.75-.81,11.75-.81l.81.91L292.82,598s-8.11-.31-13.17-.31a64.52,64.52,0,0,0-7.7.61c-.2,7.4-.31,11.45-.31,14.19C271.64,617.89,272.35,618.6,278.13,618.6Z"/><path d="M345.11,593.06l-10.84-16.21c-3.85-5.67-7.4-7.5-13-8.51l-.41-.51.81-6.48s8.51.2,16.11.2c6.29,0,15.51-.71,15.51-.71l.5.91-.5,5.88c-4.26.2-6.08,1.11-6.08,3,0,2.13,3.75,7.6,9,15.4,3.65-5.37,9.93-13.58,9.93-15.91,0-1.62-1.31-2.33-5-2.53l-.2-.51.61-5.87c2.53,0,8.91.3,13.37.3,4.86,0,11.35-.3,11.35-.3l.4.71-.5,6.18c-6.28,2.12-8.82,4.56-13.38,10.84l-10.94,15.1,11.85,17.12c4,5.57,7.71,8.21,13.38,8.51l.3.41-.81,6.69s-8.91-.31-13.17-.31c-5.17,0-18.24.81-18.24.81l-.51-.71.61-6.18c3.75-.2,5.47-1,5.47-2.84a6.92,6.92,0,0,0-1.52-3.64l-8.71-12.87-6.69,9.42c-2.53,3.55-3.54,5.27-3.54,6.69,0,1.92,1.52,2.84,5,3l.41.71-.61,6.28s-9.63-.71-13.17-.71c-4,0-11.76.51-11.76.51l-.4-1,.6-6.08c4.56-1.62,9.73-7.09,14.7-13.57Z"/><path d="M464,620.22l.4.71-.7,6s-8-.31-12.47-.31c-8.71,0-17.12.81-17.12.81l-.61-.81.51-6.08c6.58-.61,7.8-1.21,7.8-3.75a17.42,17.42,0,0,0-.51-3.34l-2-7.7c-2.63-.1-6.89-.1-9.22-.1a83.86,83.86,0,0,0-9.62.71l-2.54,7.6a12.66,12.66,0,0,0-.6,3.14c0,2.33,1.21,3,4.66,3h4.35l.41.71-.71,6.38s-8.31-.61-14.79-.61c-5.47,0-12.26.31-12.26.31l.81-6.79c3.14-.51,5-2.23,6.58-6.69l18-51.37,16.11-1.62,1.12.5s9.12,35.16,14.48,52.29C457.48,618,459.41,619.81,464,620.22Zm-41.14-22.6h7.09c2.23,0,5.37-.2,7.5-.4l-5.88-22.29h-1.41Z"/><path d="M529.13,602.79l-.21-30.3c-.1-3.14-1-4.35-3.34-4.35-1.42,0-3,.1-3.44.1l-.41-.81.71-6.29s8.61.41,13.07.41c5,0,12-.51,12-.51l-.51,6.79c-4.46.61-6.28,2.33-6.38,6.39L539.26,628l-10.74,1.32c-15.71-25.13-29.49-45-29.49-45h-1l-.1,31.21c0,3.34.91,4.56,3.44,4.56,1.12,0,4.36-.31,4.36-.31l.61.71-1,6.49s-8.72-.41-13.08-.41c-5.47,0-12.46.81-12.46.81l.81-6.79c4.05-.5,5.88-2.33,6-6.38l1.32-40c0-4.36-1.62-5.58-8.21-6.29l-.81-1,.71-5.88s6.79.51,11.75.51c4.36,0,9.73-.41,9.73-.41,13.17,21.49,27.05,41.65,27.05,41.65Z"/><path d="M625.09,620.22l.4.71-.71,6s-8-.31-12.46-.31c-8.72,0-17.13.81-17.13.81l-.6-.81.5-6.08c6.59-.61,7.81-1.21,7.81-3.75a18.26,18.26,0,0,0-.51-3.34l-2-7.7c-2.63-.1-6.89-.1-9.22-.1a83.86,83.86,0,0,0-9.62.71l-2.54,7.6a12.79,12.79,0,0,0-.61,3.14c0,2.33,1.22,3,4.67,3h4.35l.41.71-.71,6.38s-8.31-.61-14.79-.61c-5.48,0-12.27.31-12.27.31l.81-6.79c3.15-.51,5-2.23,6.59-6.69l18-51.37,16.11-1.62,1.11.5s9.12,35.16,14.49,52.29C618.6,618,620.53,619.81,625.09,620.22ZM584,597.62H591c2.23,0,5.37-.2,7.5-.4l-5.88-22.29h-1.42Z"/><path class="cls-3" d="M591.05,557.5c87.07-54,117.93-173.73,68.13-277.65-29.64-61.4-82.78-107.12-143.85-123.75"/><g id="left_leafes" data-name="left leafes"><path class="cls-4" d="M518.85,157.84s-7.27-20.28-23-23.75a108.14,108.14,0,0,1-21.3-6s8.69,20.66,18.13,27.87S518.85,157.84,518.85,157.84Z"/><path class="cls-4" d="M557.4,176.57s-14.53-10.57-26-3a78.11,78.11,0,0,1-16.2,9s15.58,10,25.08,9.33S557.4,176.57,557.4,176.57Z"/><path class="cls-4" d="M553,167.67s-15.25-6.3-16.27-21.42A109.67,109.67,0,0,0,534.07,126s15.4,7.75,20.11,16.56S553,167.67,553,167.67Z"/><path class="cls-4" d="M595.83,199s-18.71-9.24-30.36,2.27a98.69,98.69,0,0,1-16.79,14.34s19.65,8.3,30.48,5.53S595.83,199,595.83,199Z"/><path class="cls-4" d="M593.1,192.08S578.37,179.91,581.8,164a114.89,114.89,0,0,0,3.6-21.87s14.57,13.52,17.05,24.41S593.1,192.08,593.1,192.08Z"/><path class="cls-4" d="M620.9,224.18s-20.19-6.39-30.38,7.2a104.31,104.31,0,0,1-15,17.28s21,5,31.46.58S620.9,224.18,620.9,224.18Z"/><path class="cls-4" d="M626.72,224.87S616,209,623.45,195.72a100.23,100.23,0,0,0,8.87-18.65s10.14,17.09,9.6,27.71S626.72,224.87,626.72,224.87Z"/><path class="cls-4" d="M655.22,266.26s-18.58-11.55-32-3.73a93.55,93.55,0,0,1-19.14,9.17s19.68,10.71,31.2,10.22S655.22,266.26,655.22,266.26Z"/><path class="cls-4" d="M668.73,299.5s-17-1.9-24,9.61a87.91,87.91,0,0,1-10.54,15.13s17.74,1.11,25.79-3.81S668.73,299.5,668.73,299.5Z"/><path class="cls-4" d="M679.91,345s-21.54-4.08-31.17,10a105.85,105.85,0,0,1-14.43,18.24s22.41,2.84,33-2.71S679.91,345,679.91,345Z"/><path class="cls-4" d="M653.9,268.23s-11.31-16.89-6.34-30.76a103.59,103.59,0,0,0,5.52-19.56s10.93,18.18,11.79,29.61S653.9,268.23,653.9,268.23Z"/><path class="cls-4" d="M672.77,301.89s-7.24-19.29,2.64-30.68a94,94,0,0,0,12.48-16.61s6.42,20.3,3.74,31.1S672.77,301.89,672.77,301.89Z"/><path class="cls-4" d="M682.2,352.2s0-21.08,13.29-28a89.59,89.59,0,0,0,17.63-10.77s-1.16,21.74-7.44,30.91S682.2,352.2,682.2,352.2Z"/><path class="cls-4" d="M685.47,396.69s3.68-22.57,21-26a103.41,103.41,0,0,0,23-6.28s-5.17,22.92-14.38,30.81S685.47,396.69,685.47,396.69Z"/><path class="cls-4" d="M677.61,443.62s8.58-19.22,26.39-16.69a106.76,106.76,0,0,0,23.87,1.8s-10.3,19.09-21.06,23.25S677.61,443.62,677.61,443.62Z"/><path class="cls-4" d="M661.15,483.17s6.4-17.47,23.82-13a110.15,110.15,0,0,0,23.24,4.56s-8.06,17.11-17.91,19.82S661.15,483.17,661.15,483.17Z"/><path class="cls-4" d="M623.49,537.06s10.64-20.19,28-19.67a106.82,106.82,0,0,0,23.77-.81s-12.14,20.36-23.3,25.66S623.49,537.06,623.49,537.06Z"/><path class="cls-4" d="M685.14,390.26s-19.43-6.76-29.52,6.65A102.58,102.58,0,0,1,640.92,414s20.47,5.6,30.48,1.15S685.14,390.26,685.14,390.26Z"/><path class="cls-4" d="M675.76,442.63s-15-12.68-27.9-6.2a87.58,87.58,0,0,1-18.31,7.47s16,12.17,26.28,12.57S675.76,442.63,675.76,442.63Z"/><path class="cls-4" d="M658.25,492.81s-14.94-16.23-30-13.05a94.31,94.31,0,0,1-20.89,2.82s16.29,16,27.58,19S658.25,492.81,658.25,492.81Z"/><path class="cls-4" d="M625.72,535.6s-12.22-19.72-29.33-18.41a105.19,105.19,0,0,1-23.53-.06s13.86,19.63,25.15,24.6S625.72,535.6,625.72,535.6Z"/></g><path class="cls-3" d="M269,554.5c-87.08-54-117.94-173.73-68.13-277.65,29.63-61.4,82.78-107.12,143.84-123.75"/><g id="left_leafes-2" data-name="left leafes"><path class="cls-4" d="M341.23,154.84s7.27-20.28,23-23.75a107.76,107.76,0,0,0,21.3-6S376.8,145.74,367.37,153,341.23,154.84,341.23,154.84Z"/><path class="cls-4" d="M302.68,173.57s14.53-10.57,26-3a78.44,78.44,0,0,0,16.21,9s-15.58,10-25.08,9.33S302.68,173.57,302.68,173.57Z"/><path class="cls-4" d="M307.11,164.67s15.24-6.3,16.27-21.42A109.66,109.66,0,0,1,326,123s-15.4,7.75-20.1,16.56S307.11,164.67,307.11,164.67Z"/><path class="cls-4" d="M264.25,196s18.71-9.24,30.35,2.27a99.14,99.14,0,0,0,16.8,14.34s-19.65,8.3-30.49,5.53S264.25,196,264.25,196Z"/><path class="cls-4" d="M267,189.08s14.73-12.17,11.3-28.11a114.11,114.11,0,0,1-3.6-21.87s-14.58,13.52-17.05,24.41S267,189.08,267,189.08Z"/><path class="cls-4" d="M239.18,221.18s20.19-6.39,30.38,7.2a103.85,103.85,0,0,0,15,17.28s-21,5-31.46.58S239.18,221.18,239.18,221.18Z"/><path class="cls-4" d="M233.35,221.87s10.78-15.92,3.28-29.15a99.6,99.6,0,0,1-8.87-18.65s-10.14,17.09-9.6,27.71S233.35,221.87,233.35,221.87Z"/><path class="cls-4" d="M204.86,263.26s18.58-11.55,32-3.73A93.55,93.55,0,0,0,256,268.7s-19.68,10.71-31.2,10.22S204.86,263.26,204.86,263.26Z"/><path class="cls-4" d="M191.34,296.5s17-1.9,24,9.61a87.36,87.36,0,0,0,10.54,15.13s-17.75,1.11-25.8-3.81S191.34,296.5,191.34,296.5Z"/><path class="cls-4" d="M180.17,342s21.53-4.08,31.17,10a105.37,105.37,0,0,0,14.43,18.24s-22.42,2.84-33-2.71S180.17,342,180.17,342Z"/><path class="cls-4" d="M206.18,265.23s11.31-16.89,6.34-30.76A103.62,103.62,0,0,1,207,214.91s-10.93,18.18-11.78,29.61S206.18,265.23,206.18,265.23Z"/><path class="cls-4" d="M187.31,298.89s7.24-19.29-2.65-30.68a94.45,94.45,0,0,1-12.48-16.61s-6.41,20.3-3.73,31.1S187.31,298.89,187.31,298.89Z"/><path class="cls-4" d="M177.87,349.2s0-21.08-13.29-28A89.89,89.89,0,0,1,147,310.46s1.17,21.74,7.45,30.91S177.87,349.2,177.87,349.2Z"/><path class="cls-4" d="M174.61,393.69s-3.69-22.57-21.05-26a103.35,103.35,0,0,1-23-6.28s5.17,22.92,14.38,30.81S174.61,393.69,174.61,393.69Z"/><path class="cls-4" d="M182.47,440.62s-8.58-19.22-26.4-16.69a106.68,106.68,0,0,1-23.86,1.8s10.3,19.09,21.06,23.25S182.47,440.62,182.47,440.62Z"/><path class="cls-4" d="M198.93,480.17s-6.41-17.47-23.82-13a110.15,110.15,0,0,1-23.24,4.56s8,17.11,17.91,19.82S198.93,480.17,198.93,480.17Z"/><path class="cls-4" d="M236.59,534.06s-10.65-20.19-28-19.67a106.8,106.8,0,0,1-23.77-.81s12.14,20.36,23.3,25.66S236.59,534.06,236.59,534.06Z"/><path class="cls-4" d="M174.94,387.26s19.43-6.76,29.52,6.65A101.66,101.66,0,0,0,219.16,411s-20.47,5.6-30.49,1.15S174.94,387.26,174.94,387.26Z"/><path class="cls-4" d="M184.31,439.63s15-12.68,27.9-6.2a87.89,87.89,0,0,0,18.32,7.47s-16,12.17-26.29,12.57S184.31,439.63,184.31,439.63Z"/><path class="cls-4" d="M201.82,489.81s15-16.23,30-13.05a94.48,94.48,0,0,0,20.9,2.82s-16.3,16-27.58,19S201.82,489.81,201.82,489.81Z"/><path class="cls-4" d="M234.36,532.6s12.21-19.72,29.33-18.41a105.19,105.19,0,0,0,23.53-.06s-13.86,19.63-25.15,24.6S234.36,532.6,234.36,532.6Z"/></g></g></g></svg>